:SAMPLES-PER-SECOND 30
:FULLY-SPECIFIED
:DEGREES
401
root  37.8279 39.9579 -2.28903 -178.723 10.3032 178.424
RightUpLeg  -8.86051 -15.2667 -11.8083
RightLeg  4.7507 -44.2496 4.97843
RightFoot  7.83187 0.530399 -2.82063
RightToes  0.000482159 0.542163 -0.142577
Spine  36.7081 -4.14999 12.9502
Spine1  2.11237 0.0238345 -1.33711
HEad  -18.7288 33.8614 -31.0309
LeftShoulder1  10.537 -16.0692 -46.9747
LeftArm  -12.7451 10.3447 -22.9891
LeftForeArm  19.0978 -69.6824 -30.6203
LeftHand  -0.25398 0.0180481 5.50724
RightShoulder  4.94254 9.92754 30.8464
RightArm  -9.02707 -15.925 23.1728
RightForeArm  25.4057 77.4255 71.5672
RightHand  0.240515 -12.2652 -5.34479
LeftUpLeg  -17.686 22.1971 4.0322
LeftLeg  24.6643 5.07023 2.86786
LeftFoot  -3.76179 0.00627291 0.244232
LeftToes  1.06248e-005 4.65854e-005 -8.185e-006
402
root  37.3342 39.9201 -2.28219 -178.893 5.71915 178.599
RightUpLeg  -7.36409 -16.0809 -13.3456
RightLeg  4.85731 -47.8434 4.7621
RightFoot  8.64151 0.409261 -1.98752
RightToes  0.000482159 0.542163 -0.142577
Spine  34.9207 -3.84814 12.7289
Spine1  1.82071 0.158625 -1.75967
HEad  -19.1506 36.6735 -31.9957
LeftShoulder1  10.466 -15.8097 -47.2926
LeftArm  -12.9182 12.2604 -22.2801
LeftForeArm  21.5027 -70.9041 -32.9639
LeftHand  -0.25398 0.0180481 5.50724
RightShoulder  4.95912 9.84478 31.2026
RightArm  -8.46018 -17.3957 23.472
RightForeArm  28.2267 77.6131 74.536
RightHand  0.271045 -12.0862 -5.96411
LeftUpLeg  -16.9749 25.1059 5.66367
LeftLeg  24.1893 6.17098 3.35119
LeftFoot  -4.20953 -0.0399036 1.05722
LeftToes  1.06248e-005 4.65854e-005 -8.185e-006
403
root  36.744 39.8871 -2.3247 -179.197 1.05057 178.883
RightUpLeg  -5.06564 -16.7273 -15.0187
RightLeg  3.72527 -51.0443 5.49572
RightFoot  9.65577 0.25286 -1.00286
RightToes  0.000482159 0.542163 -0.142577
Spine  33.3623 -3.6471 12.4209
Spine1  1.67218 0.249501 -2.34885
HEad  -19.3128 38.3063 -31.9737
LeftShoulder1  10.3483 -15.5576 -47.3817
LeftArm  -13.1295 13.7812 -21.9175
LeftForeArm  23.6299 -71.8484 -35.0378
LeftHand  -0.25398 0.0180481 5.50724
RightShoulder  4.96496 9.7608 31.4842
RightArm  -8.11259 -18.7576 23.8208
RightForeArm  31.0986 77.7581 77.0961
RightHand  0.277813 -12.321 -5.90794
LeftUpLeg  -15.9897 29.4936 6.77719
LeftLeg  22.5162 9.15197 4.45375
LeftFoot  -4.91613 -0.0992948 2.29624
LeftToes  1.06248e-005 4.65854e-005 -8.185e-006
404
root  36.0152 39.8443 -2.43698 -179.347 -3.76953 179.085
RightUpLeg  -2.48588 -17.2414 -16.8788
RightLeg  1.79581 -54.267 6.81642
RightFoot  11.0085 0.201047 -0.629718
RightToes  0.000482159 0.542163 -0.142577
Spine  31.5834 -3.4813 11.9389
Spine1  1.81475 0.226208 -2.85708
HEad  -19.0732 38.6872 -31.1673
LeftShoulder1  10.2653 -15.3501 -47.5219
LeftArm  -13.3661 15.0243 -21.7296
LeftForeArm  25.6213 -72.644 -37.0083
LeftHand  -0.25398 0.0180481 5.50724
RightShoulder  4.94261 9.68866 31.5198
RightArm  -8.01545 -20.1372 24.1883
RightForeArm  34.1048 77.8806 79.6263
RightHand  0.277479 -12.9992 -5.44646
LeftUpLeg  -14.935 33.5161 6.99801
LeftLeg  20.4492 14.287 6.12932
LeftFoot  -5.20828 -0.117134 2.76645
LeftToes  1.06248e-005 4.65854e-005 -8.185e-006
405
root  35.1172 39.7483 -2.63055 -178.588 -8.40576 178.764
RightUpLeg  -0.849401 -18.2693 -19.2936
RightLeg  1.10852 -57.6468 7.32106
RightFoot  12.4894 0.0356779 0.224143
RightToes  0.000482159 0.542163 -0.142577
Spine  28.7007 -2.95309 10.6996
Spine1  2.33886 0.217028 -3.05136
HEad  -18.3827 38.0854 -29.7077
LeftShoulder1  10.196 -15.1704 -47.6578
LeftArm  -13.4667 16.1457 -21.7705
LeftForeArm  27.6652 -73.3551 -38.9554
LeftHand  -0.25398 0.0180481 5.50724
RightShoulder  4.91179 9.67158 31.3332
RightArm  -7.98029 -21.6896 24.3609
RightForeArm  36.9924 77.9733 82.6553
RightHand  0.297604 -13.5932 -5.38501
LeftUpLeg  -14.8015 36.4959 5.5851
LeftLeg  18.8323 17.8486 6.9444
LeftFoot  -4.32413 -0.0348969 1.05378
LeftToes  1.06248e-005 4.65854e-005 -8.185e-006
406
root  34.0753 39.5839 -2.88127 -177.037 -12.7701 177.936
RightUpLeg  -0.137034 -19.8567 -22.2644
RightLeg  2.80168 -58.976 5.96325
RightFoot  12.8809 -0.602093 3.24208
RightToes  0.000482159 0.542163 -0.142577
Spine  24.9329 -2.06617 8.7157
Spine1  3.15385 0.3471 -2.95489
HEad  -17.3282 36.7663 -27.8026
LeftShoulder1  10.088 -15.0035 -47.5773
LeftArm  -13.1971 16.9031 -22.1518
LeftForeArm  29.3367 -73.8403 -40.3726
LeftHand  -0.25398 0.0180481 5.50724
RightShoulder  4.88018 9.66438 31.1114
RightArm  -8.01438 -23.5883 24.2111
RightForeArm  40.4217 78.0293 86.8277
RightHand  0.336894 -13.954 -5.70582
LeftUpLeg  -16.1289 38.9685 2.57845
LeftLeg  18.4913 16.1183 6.12007
LeftFoot  -3.3668 0.141573 -1.78041
LeftToes  1.06248e-005 4.65854e-005 -8.185e-006
407
root  32.9689 39.4196 -3.12859 -176.108 -17.3061 177.238
RightUpLeg  0.788267 -20.5128 -24.6944
RightLeg  5.41923 -54.2972 3.17293
RightFoot  10.7487 -1.30635 7.10634
RightToes  0.000482159 0.542163 -0.142577
Spine  22.0564 -1.41245 7.13227
Spine1  4.00195 0.545523 -2.96092
HEad  -16.2225 34.7942 -25.9396
LeftShoulder1  9.99537 -14.917 -47.358
LeftArm  -12.4153 16.7955 -22.5996
LeftForeArm  29.8747 -73.9368 -40.6202
LeftHand  -0.25398 0.0180481 5.50724
RightShoulder  4.83814 9.56352 31.0758
RightArm  -8.46841 -25.7529 23.9608
RightForeArm  44.5918 78.0291 91.5176
RightHand  0.349085 -14.3943 -5.62266
LeftUpLeg  -17.6714 40.1966 -0.442267
LeftLeg  19.6222 10.9582 4.62918
LeftFoot  -3.97477 0.211041 -2.88584
LeftToes  1.06248e-005 4.65854e-005 -8.185e-006
408
root  31.8726 39.3522 -3.33562 -176.728 -22.1176 177.012
RightUpLeg  2.15699 -19.0864 -25.4332
RightLeg  6.88712 -41.9124 0.555258
RightFoot  5.92499 -1.24336 8.34234
RightToes  0.000482159 0.542163 -0.142577
Spine  21.2265 -1.25081 6.62851
Spine1  4.72525 0.727015 -3.41479
HEad  -15.3031 32.3665 -24.5275
LeftShoulder1  9.99572 -14.9584 -47.2513
LeftArm  -11.3019 15.7587 -22.7358
LeftForeArm  29.2292 -73.6795 -39.7752
LeftHand  -0.25398 0.0180481 5.50724
RightShoulder  4.8075 9.40383 31.2988
RightArm  -9.46722 -27.643 23.9468
RightForeArm  47.2111 78.0011 94.1935
RightHand  0.322988 -14.9115 -5.0509
LeftUpLeg  -17.1437 37.9694 -1.60249
LeftLeg  21.137 8.18599 3.81651
LeftFoot  -6.02727 0.114695 -1.64001
LeftToes  1.06248e-005 4.65854e-005 -8.185e-006
409
root  30.8439 39.3568 -3.54098 -178.013 -26.4054 176.852
RightUpLeg  2.45599 -16.9433 -24.5328
RightLeg  8.94792 -24.5456 -1.70634
RightFoot  0.0630696 -0.62284 6.17308
RightToes  0.000482159 0.542163 -0.142577
Spine  21.4627 -1.15215 6.22647
Spine1  5.48092 0.958782 -4.03972
HEad  -14.4353 30.089 -23.4761
LeftShoulder1  10.0215 -15.0172 -47.2219
LeftArm  -10.3754 14.4643 -22.662
LeftForeArm  28.2373 -73.2959 -38.5983
LeftHand  -0.25398 0.0180481 5.50724
RightShoulder  4.84943 9.37494 31.7101
RightArm  -10.4266 -28.5421 24.0613
RightForeArm  45.4257 78.013 92.589
RightHand  0.307797 -15.0252 -4.82521
LeftUpLeg  -14.896 33.6001 -1.80928
LeftLeg  21.9218 8.73555 4.18177
LeftFoot  -8.06783 0.0522194 -0.183607
LeftToes  1.06248e-005 4.65854e-005 -8.185e-006
410
root  29.882 39.3718 -3.80852 -178.737 -29.4095 176.562
RightUpLeg  0.314793 -15.7725 -22.7108
RightLeg  13.3503 -8.80815 -2.28712
RightFoot  -3.86768 -0.292405 4.19247
RightToes  0.000482159 0.542163 -0.142577
Spine  21.3083 -0.708009 5.16954
Spine1  6.20031 1.30139 -4.33761
HEad  -13.3839 28.6172 -22.4607
LeftShoulder1  9.93779 -14.9537 -46.9832
LeftArm  -10.0952 13.7506 -22.7737
LeftForeArm  27.6711 -73.0252 -37.788
LeftHand  -0.25398 0.0180481 5.50724
RightShoulder  4.98711 9.55829 32.2374
RightArm  -10.5655 -28.1569 23.8638
RightForeArm  39.4535 77.9941 87.2019
RightHand  0.332769 -14.5447 -5.34544
LeftUpLeg  -12.6297 29.9716 -2.25653
LeftLeg  22.002 9.7635 4.65589
LeftFoot  -9.35886 0.0505495 0.29384
LeftToes  1.06248e-005 4.65854e-005 -8.185e-006
411
root  28.9507 39.4217 -4.15306 -179.006 -31.5092 176.433
RightUpLeg  -3.37611 -14.3881 -20.2694
RightLeg  19.4642 -2.11432 -1.15023
RightFoot  -4.85906 -0.313322 4.94508
RightToes  0.000482159 0.542163 -0.142577
Spine  20.73 -0.171433 3.84523
Spine1  6.64308 1.56212 -4.30934
HEad  -12.2368 28.0839 -21.4893
LeftShoulder1  9.76348 -14.8075 -46.5166
LeftArm  -10.4769 13.839 -23.1018
LeftForeArm  27.5997 -72.9524 -37.5589
LeftHand  -0.25398 0.0180481 5.50724
RightShoulder  5.13894 9.78185 32.739
RightArm  -9.839 -26.7916 23.4013
RightForeArm  32.4909 77.8421 80.8946
RightHand  0.369003 -13.9374 -6.13368
LeftUpLeg  -10.5248 28.4209 -2.61903
LeftLeg  21.4154 9.29087 4.28967
LeftFoot  -10.426 0.0599082 0.340161
LeftToes  1.06248e-005 4.65854e-005 -8.185e-006
412
root  28.0066 39.5333 -4.5437 -179.539 -33.7403 176.747
RightUpLeg  -7.02162 -14.9119 -17.0052
RightLeg  25.3293 -2.9961 -1.82156
RightFoot  -5.12957 -0.371247 6.17399
RightToes  0.000482159 0.542163 -0.142577
Spine  20.2886 -0.030264 2.94779
Spine1  6.87541 1.42593 -4.05134
HEad  -11.3173 28.0477 -20.8154
LeftShoulder1  9.62858 -14.7101 -46.1079
LeftArm  -11.1515 14.2852 -23.3034
LeftForeArm  27.6948 -73.0062 -37.7186
LeftHand  -0.25398 0.0180481 5.50724
RightShoulder  5.1975 9.84522 32.9934
RightArm  -8.90528 -25.0198 23.2119
RightForeArm  27.1616 77.6237 76.094
RightHand  0.406862 -13.7377 -6.76435
LeftUpLeg  -7.87719 26.5243 -2.18481
LeftLeg  20.2565 9.17793 3.33397
LeftFoot  -11.6331 0.0706302 0.351806
LeftToes  1.06248e-005 4.65854e-005 -8.185e-006
413
root  27.0245 39.7036 -4.96299 179.618 -36.4593 177.484
RightUpLeg  -10.3995 -16.2614 -12.9307
RightLeg  29.3719 -6.88678 -4.38605
RightFoot  -5.74437 -0.268238 4.68235
RightToes  0.000482159 0.542163 -0.142577
Spine  19.9609 -0.304325 2.66968
Spine1  7.13809 0.907541 -3.39627
HEad  -10.7248 27.934 -20.3613
LeftShoulder1  9.55444 -14.6726 -45.8384
LeftArm  -11.714 14.6205 -23.2652
LeftForeArm  27.7879 -73.0908 -37.9861
LeftHand  -0.25398 0.0180481 5.50724
RightShoulder  5.16851 9.76959 32.9966
RightArm  -8.33571 -23.4354 23.47
RightForeArm  24.0784 77.4596 73.4868
RightHand  0.451686 -13.9539 -7.19936
LeftUpLeg  -4.62918 21.5279 -1.18977
LeftLeg  18.3726 11.8628 2.23812
LeftFoot  -12.3697 0.0769679 0.301083
LeftToes  1.06248e-005 4.65854e-005 -8.185e-006
